<svg id="Ebene_1" data-name="Ebene 1" xmlns="http://www.w3.org/2000/svg" viewBox="0 0 1073.58 714.9">
  <defs>
    <style>
      .cls-1 {
        fill: rgba(0,0,0,0.0);
      }
    </style>
  </defs>
  <path d="M568.77,239.72c-10.66-.12-18.95-4.05-22.78-14.23s-.57-18.66,7.67-25.65c-2.55-4.24-4-8.9-2.39-13.63,1.17-3.42.24-6-1.1-9q-16.38-35.73-32.62-71.53c-.44-1-.83-1.92-1.36-3.16.92-.07,1.65-.18,2.38-.18,11.14,0,22.27,0,33.41-.06a3.52,3.52,0,0,1,3.5,2.08c5.4,9.11,10.9,18.17,16.29,27.29a3.3,3.3,0,0,0,3.35,1.91c3.79-.11,7.59,0,11.57,0l-6.19-31.09h52.68L627,133.57c4.42,0,8.56.1,12.69-.09.76,0,1.7-1.06,2.18-1.86,5.46-9,10.89-18,16.21-27a3.92,3.92,0,0,1,3.94-2.26c10.87.1,21.74,0,32.62,0h2.89c-.49,1.18-.83,2.06-1.22,2.92Q679.41,142.68,662.48,180c-.41.92-1,2.14-.67,3a19.38,19.38,0,0,1-1.7,16.86c8.26,6.87,11.4,15.41,7.69,25.55S655.7,239.53,645,239.74c.48,5.68.92,11.19,1.42,16.7q2,22,4.06,44.06,2.53,27.84,5,55.68c.08.88.18,1.76.25,2.64.36,4.93.92,9.07,5.53,12.93,8.78,7.35,10.11,18.21,5.33,28.74a2.65,2.65,0,0,0-.22.57c4.17,1.2,8.5,1.82,12.24,3.65,7.13,3.5,10.65,12.17,8.86,20.06a18.31,18.31,0,0,1-16.34,14.36c-1.67.14-3.35.23-5,.23q-59.65,0-119.32,0c-5.45,0-10.47-1-14.77-4.72a18.84,18.84,0,0,1-5.32-19.8,18.55,18.55,0,0,1,15.75-12.76c1.63-.12,3.29,0,5.06,0-.88-2.59-1.84-4.77-2.38-7.06a24.39,24.39,0,0,1,10-25.79,4.69,4.69,0,0,0,2.22-3.84q2.48-28.11,5.1-56.21,2.28-24.94,4.59-49.87C567.63,252.9,568.18,246.48,568.77,239.72ZM535.62,114.87c.34.95.5,1.53.75,2.08q11.85,26,23.67,52a2.94,2.94,0,0,0,3.21,1.95q43.61-.07,87.21,0a3.1,3.1,0,0,0,3.31-2.21q11.61-25.68,23.35-51.29c.34-.74.63-1.49,1.07-2.58-3.39,0-6.3.1-9.2,0a3.42,3.42,0,0,0-3.57,2c-4.77,8-9.68,16-14.49,24.05A9.66,9.66,0,0,1,642,146c-5.3-.05-10.62-.31-15.9.06-8.63.6-14.19-5-11.53-14.38a4.25,4.25,0,0,0,.14-.51c1.06-5.32,2.11-10.64,3.18-16.08H596a7.13,7.13,0,0,0,0,1.25c1.14,5.62,2.33,11.22,3.45,16.84,1.56,7.79-2.5,12.77-10.45,12.81-5.39,0-10.79-.16-16.17.05-4.91.19-8.16-1.92-10.57-6.05-4.53-7.79-9.23-15.47-13.91-23.16-.46-.76-1.27-1.8-2-1.83C542.87,114.77,539.37,114.87,535.62,114.87Zm71.29,112.21c13.25,0,26.5,0,39.75,0,2.86,0,5.46-.58,7.44-2.77,2.73-3,3.52-6.51,1.83-10.29a9,9,0,0,0-8.83-5.59q-28.23,0-56.45,0c-8,0-16.07,0-24.11,0a9,9,0,0,0-8.57,5.18,9.16,9.16,0,0,0,8.39,13.42C579.88,227.14,593.39,227.07,606.91,227.08Z"/>
  <path d="M400.25,239.91c-16.17-2.19-23.18-8.28-24.27-21.16-.67-7.94,4.24-18.93,17.1-22.27-1.08-4.94-2.18-9.89-3.24-14.85-1.77-8.27-3.74-16.52-5.19-24.85-1.36-7.85,5.11-16,13.05-16.71,4-.37,8.11-.22,12.17-.3,1.05,0,2.09,0,3.29,0v-6c-2-.16-4-.22-5.93-.49a14.33,14.33,0,0,1-12.43-13.16c-.29-5.11-.35-10.25-.15-15.36.36-9,6.33-14.71,15.52-15,.95,0,1.9,0,3.19,0,0-1.56-.06-2.86,0-4.16a14.83,14.83,0,0,1,15-14.46q9.94-.15,19.88,0c8.61.12,14.82,6.35,15,14.91,0,1.13,0,2.27,0,3.32a83.54,83.54,0,0,1,8.48,1.36,13.81,13.81,0,0,1,10.06,12.61c.19,5,.17,10.07.09,15.1-.15,8.74-6,14.71-14.77,15.14-1.15.05-2.29,0-3.65,0v6.19c3.54,0,7.12-.07,10.7,0a26.33,26.33,0,0,1,6.54.68c8.63,2.56,12.83,10,10.88,19-2.61,12-5.28,23.93-7.92,35.9-.07.33-.08.67-.12,1,12.45,5.32,18.35,13.27,17.05,22.89-1.75,12.89-8.16,18.44-24.17,20.7,1.48,16.44,2.95,32.91,4.44,49.52H395.8C397.29,272.88,398.76,256.48,400.25,239.91Zm25.63-137.8a5.26,5.26,0,0,1-.84.24c-4.85,0-9.71.09-14.57,0-2.53,0-3.5,1.05-3.44,3.5.08,3.62,0,7.24,0,10.86,0,3.85.45,4.31,4.21,4.31h14.67v18.51h24.93V121h10.37c9.35,0,8.26.72,8.31-8.17,0-2,0-4.06,0-6.09,0-4.07-.32-4.39-4.36-4.39H450.8c0-5.12,0-9.88,0-14.63,0-3.67-.49-4.17-4.09-4.19-5.39,0-10.77,0-16.16,0-4.35,0-4.66.31-4.66,4.67C425.87,92.89,425.88,97.55,425.88,102.11Zm12.37,125h0c13.34,0,26.68,0,40,0,3,0,5.59-.79,7.56-3.1a8.87,8.87,0,0,0,1.48-10.12,9.08,9.08,0,0,0-8.7-5.43c-11.22,0-22.43,0-33.65,0q-23.32,0-46.65,0c-3.88,0-6.9,1.55-8.74,4.92A9.16,9.16,0,0,0,397.7,227C411.22,227.14,424.74,227.07,438.25,227.07Z"/>
  <path d="M392.33,327.28h92c.75,8.2,1.5,16.27,2.24,24.34.42,4.66.75,9.33,1.3,14a4.54,4.54,0,0,0,1.53,3c9.94,6.49,14.91,20.55,8.35,32.21a6.48,6.48,0,0,0-.31,1.17c1.57,0,3-.06,4.46,0a18.61,18.61,0,0,1,.7,37.1c-1.67.14-3.35.22-5,.22q-59.76,0-119.53,0c-5.36,0-10.28-1.07-14.5-4.68-5.26-4.52-7.77-12.8-5.62-19.26,2.56-7.68,9-13,16.4-13.39,1.48-.08,3,0,4.75,0-.35-.95-.55-1.6-.82-2.21-5-11.13-1.78-23.53,8.22-30.56a5.63,5.63,0,0,0,2.48-4.81c.5-6.16,1.07-12.32,1.63-18.47S391.73,333.7,392.33,327.28Z"/>
  <path d="M691.47,591v53.24H678.7V512.34h12v17.77l.92.71a6.71,6.71,0,0,1,.62-1.64C702.56,515,716.84,510,733.75,511.57c15.6,1.45,27.79,8.69,35.94,22.22,13.79,22.89,6.77,54.76-15,68.64-16.85,10.73-40.6,9.48-55.2-3.07C696.64,596.93,694.28,594,691.47,591Zm72.14-30.51c.07-20.88-13.07-36-33.38-37.74-12.17-1.06-22.63,3-30.6,12.51-7.17,8.6-9.19,18.75-8.19,29.59,2.56,27.93,28.36,38.86,49.72,30.86C755.11,590.46,763.55,577,763.61,560.46Z"/>
  <path d="M351.91,608.54H339.16c-.05-1-.14-1.9-.14-2.82,0-16.44.11-32.88-.08-49.31A66.56,66.56,0,0,0,337.32,542c-2.17-9.13-8.14-15.12-17.17-17.7A37,37,0,0,0,295,525.61c-12.75,5.42-18.5,15.83-18.85,29.1-.45,17-.22,34.1-.13,51.15,0,2.43-.71,3.07-3,2.87a38.56,38.56,0,0,0-6.88,0c-2.48.22-3.3-.5-3.27-3.13.13-14.14.06-28.28.06-42.42v-91h13V526.8c2-1.67,4.24-3.47,6.42-5.35a40.67,40.67,0,0,1,21.89-9.79c9.46-1.24,18.68-.85,27.44,3.39,11,5.35,17.26,14.32,19.16,26.23a103.56,103.56,0,0,1,1.05,15.55c.13,16.17.05,32.34.05,48.51Z"/>
  <path d="M236.19,497.42c-2.87,2.84-5.62,5.54-8.43,8.31a.41.41,0,0,1-.31-.1c-11-10.86-24.38-15-39.54-14.69-22.86.42-42.4,14.08-49.81,35.06-7.59,21.5-1.21,45.42,16.09,59.63,10.78,8.86,23.36,12.44,37.19,12.11,14-.33,26.23-5,36.06-14.94l8.37,8.7a50.56,50.56,0,0,1-23.7,14.74c-25,7.26-48.64,4.65-68.62-12.93-20.41-17.94-25.93-41.38-19.12-67.09,6.66-25.16,24.06-40.19,49.3-45.71,17.38-3.8,34.26-1.76,50.05,6.87A46.09,46.09,0,0,1,236.19,497.42Z"/>
  <path d="M390.71,564.32c-1,10.66,7.47,23.75,18.77,29.53,13.14,6.73,35.55,6.76,49.07-8.14l7.13,8.13c-1,1.13-2,2.28-3,3.29-7.21,6.91-16,10.61-25.75,11.92-11.53,1.54-22.78.49-33.26-4.91-14.75-7.59-23.32-19.79-25.39-36.19-2.19-17.38,1.76-33.08,15.32-45,14.28-12.55,31-14.93,48.58-8.64,17.25,6.18,26.27,19.57,29,37.34.63,4.06.55,8.21.82,12.67Zm0-9.83h68.68c-1-19.37-16.94-33.11-37-32.09C405.06,523.27,390,538.54,390.68,554.49Z"/>
  <path d="M862.67,554.15c.25-6.39.34-12.47-2.19-18.21-3.67-8.32-10.64-12-19.2-13-13.74-1.58-26.27,1.68-37.33,10.14a9.3,9.3,0,0,1-1.07.59c-1.89-3.15-3.75-6.22-5.65-9.38a50.37,50.37,0,0,1,17.2-9.49,66.8,66.8,0,0,1,32.89-2.62c16.72,2.95,26.37,13.33,28,30.2.24,2.46.37,4.94.37,7.4q0,28.5,0,57a17.43,17.43,0,0,1-.19,1.9h-12V593.93a14.48,14.48,0,0,0-1.33,1.25c-6.19,8.58-14.86,12.84-25.1,14.06-8.32,1-16.57.54-24.49-2.56-16.14-6.32-22.75-23.54-14.63-38.25,4-7.16,10.59-10.76,18.2-12.54a66.51,66.51,0,0,1,13.35-1.65c10.07-.24,20.14-.08,30.21-.09Zm.1,9.59c-5.22,0-10.07-.06-14.91,0-7.68.12-15.37.16-23,.56-4.63.25-9.07,1.57-12.55,5-9.2,8.93-5.34,23.83,7.3,28.35,5.37,1.91,10.93,2.08,16.49,1.59,11.8-1,20.69-6.56,25.84-17.5a6.94,6.94,0,0,0,.83-2.76C862.81,574,862.77,569.06,862.77,563.74Z"/>
  <path d="M485.19,598c2.15-3.75,4-7,5.9-10.3a61,61,0,0,0,20.85,9.12c9.34,2.1,18.75,2.39,28-.21,6.92-1.94,11-6.64,11.54-12.66.47-5.18-1.39-9.14-5.95-11.77-5.48-3.17-11.63-4-17.67-5.21s-12.11-2.39-18.14-3.7a32.19,32.19,0,0,1-5.25-1.79c-9.27-3.77-15.19-10.09-15.68-20.58-.49-10.68,4-18.58,13.14-23.94,6.32-3.72,13.32-5.13,20.51-5.55a70.53,70.53,0,0,1,34,6.27c1.51.69,2.93,1.58,4.67,2.54-1.89,3.47-3.68,6.77-5.62,10.35-1-.59-1.86-1.14-2.75-1.62a52,52,0,0,0-39-4.86c-7.88,2-12.32,7.66-12.33,14.6a11.44,11.44,0,0,0,5.57,10.2c4.7,3.06,10.08,4.11,15.41,5.35,8.83,2,17.78,3.71,26.42,6.38,9.09,2.81,14.79,9.09,15.49,19.06.7,10.18-3.14,18.08-11.85,23.51a43.32,43.32,0,0,1-18.75,6c-14.24,1.49-28-.2-41-6.63C490.24,601.25,487.87,599.57,485.19,598Z"/>
  <path d="M575.11,597.9l5.56-9.73c5.39,2.42,10.45,5.09,15.79,7,10.28,3.71,20.89,4.06,31.57,1.9a17.29,17.29,0,0,0,10.9-6.51c4.65-6.22,3.26-15.1-3.72-18.37-5.41-2.54-11.49-3.77-17.36-5.22s-12.1-2.41-18.12-3.76a43.71,43.71,0,0,1-6.48-2.27c-19.55-7.82-18-32.74-4.36-42.17,7.09-4.9,15-6.92,23.41-7.42a70.51,70.51,0,0,1,34.27,6.35c1.49.69,2.89,1.59,4.49,2.48l-5.64,10.36a47.6,47.6,0,0,0-19.06-7.39c-7.58-1.2-15.17-1.41-22.55.9a25,25,0,0,0-8,4.42c-5.73,4.59-7.23,16.62,2.52,21,5.31,2.41,11.18,3.65,16.87,5.14,7.91,2.09,16,3.47,23.8,6,8.71,2.81,14.39,8.78,15.23,18.42.89,10.25-2.73,18.33-11.52,23.92a43.1,43.1,0,0,1-19,6.18c-14.52,1.55-28.54-.28-41.7-6.93C579.71,601,577.58,599.45,575.11,597.9Z"/>
  <path d="M924.18,608.59h-12.6V472.14h12.6Z"/>
  <path d="M394.58,302.09h3.13c27.05,0,54.09,0,81.13-.07,2.7,0,3.55.76,3.55,3.36,0,2.9.44,5.8.71,8.93H393.5C393.86,310.28,394.21,306.29,394.58,302.09Z"/>
  <path class="cls-1" d="M535.62,114.87c3.75,0,7.25-.1,10.74.09.69,0,1.5,1.07,2,1.83,4.68,7.69,9.38,15.37,13.91,23.16,2.41,4.13,5.66,6.24,10.57,6.05,5.38-.21,10.78,0,16.17-.05,7.95,0,12-5,10.45-12.81-1.12-5.62-2.31-11.22-3.45-16.84a7.13,7.13,0,0,1,0-1.25h21.95c-1.07,5.44-2.12,10.76-3.18,16.08a4.25,4.25,0,0,1-.14.51c-2.66,9.42,2.9,15,11.53,14.38,5.28-.37,10.6-.11,15.9-.06a9.66,9.66,0,0,0,8.91-5.13c4.81-8,9.72-16,14.49-24.05a3.42,3.42,0,0,1,3.57-2c2.9.13,5.81,0,9.2,0-.44,1.09-.73,1.84-1.07,2.58q-11.68,25.63-23.35,51.29a3.1,3.1,0,0,1-3.31,2.21q-43.61-.1-87.21,0A2.94,2.94,0,0,1,560,169q-11.76-26-23.67-52C536.12,116.4,536,115.82,535.62,114.87Z"/>
  <path class="cls-1" d="M606.91,227.08c-13.52,0-27,.06-40.55,0A9.16,9.16,0,0,1,558,213.63a9,9,0,0,1,8.57-5.18c8,0,16.08,0,24.11,0q28.23,0,56.45,0a9,9,0,0,1,8.83,5.59c1.69,3.78.9,7.27-1.83,10.29-2,2.19-4.58,2.78-7.44,2.77C633.41,227.06,620.16,227.08,606.91,227.08Z"/>
  <path class="cls-1" d="M425.88,102.11c0-4.56,0-9.22,0-13.88,0-4.36.31-4.67,4.66-4.67,5.39,0,10.77,0,16.16,0,3.6,0,4.08.52,4.09,4.19,0,4.75,0,9.51,0,14.63h14.38c4,0,4.35.32,4.36,4.39,0,2,0,4.06,0,6.09-.05,8.89,1,8.17-8.31,8.17H450.86v18.51H425.93V121H411.26c-3.76,0-4.21-.46-4.21-4.31,0-3.62.06-7.24,0-10.86-.06-2.45.91-3.55,3.44-3.5,4.86.09,9.72,0,14.57,0A5.26,5.26,0,0,0,425.88,102.11Z"/>
  <path class="cls-1" d="M438.25,227.07c-13.51,0-27,.07-40.55,0a9.16,9.16,0,0,1-8.13-13.7c1.84-3.37,4.86-4.93,8.74-4.92q23.32,0,46.65,0c11.22,0,22.43,0,33.65,0a9.08,9.08,0,0,1,8.7,5.43A8.87,8.87,0,0,1,485.83,224c-2,2.31-4.57,3.11-7.56,3.1-13.34,0-26.68,0-40,0Z"/>
  <path class="cls-1" d="M763.61,560.46c-.06,16.53-8.5,30-22.45,35.22-21.36,8-47.16-2.93-49.72-30.86-1-10.84,1-21,8.19-29.59,8-9.55,18.43-13.57,30.6-12.51C750.54,524.48,763.68,539.58,763.61,560.46Z"/>
  <path class="cls-1" d="M390.68,554.49c-.7-16,14.38-31.22,31.64-32.09,20.1-1,36.05,12.72,37,32.09Z"/>
  <path class="cls-1" d="M862.77,563.74c0,5.32,0,10.26,0,15.2a6.94,6.94,0,0,1-.83,2.76c-5.15,10.94-14,16.46-25.84,17.5-5.56.49-11.12.32-16.49-1.59-12.64-4.52-16.5-19.42-7.3-28.35,3.48-3.38,7.92-4.7,12.55-5,7.67-.4,15.36-.44,23-.56C852.7,563.68,857.55,563.74,862.77,563.74Z"/>
</svg>
